<svg width="321" height="30" viewBox="0 0 321 30" fill="none" xmlns="http://www.w3.org/2000/svg">
<path fill-rule="evenodd" clip-rule="evenodd" d="M39.8504 0.816406L34.3419 6.13571C35.2738 6.25072 36.1404 6.33901 36.3044 6.31824C37.059 6.22178 47.15 3.51353 47.15 3.51353C47.15 3.51353 46.9497 3.35548 46.7649 3.22489C46.5382 3.07898 46.3003 2.95121 46.0534 2.84277C44.5555 2.15877 43.0015 1.60518 41.4085 1.18814C40.8926 1.05162 40.3732 0.927704 39.8504 0.816406Z" fill="#F08300"/>
<path fill-rule="evenodd" clip-rule="evenodd" d="M33.677 6.05056L39.2286 0.688961C37.2984 0.315901 35.342 0.0943616 33.3773 0.0263672L30.8694 5.66027C31.8058 5.76341 32.6858 5.91848 33.677 6.05056Z" fill="#F08300"/>
<path fill-rule="evenodd" clip-rule="evenodd" d="M30.3203 5.606L32.8119 0.00994063C30.8119 -0.0323705 28.8115 0.0638235 26.8248 0.297832V5.64904C27.9859 5.52356 29.1564 5.50915 30.3203 5.606Z" fill="#F08300"/>
<path fill-rule="evenodd" clip-rule="evenodd" d="M26.3002 5.7068V0.364502C24.4003 0.608889 22.5171 0.969176 20.6611 1.44335L23.3182 6.2262C24.4497 5.98282 25.4306 5.81588 26.3002 5.7068Z" fill="#F08300"/>
<path fill-rule="evenodd" clip-rule="evenodd" d="M22.7862 6.34588L20.1417 1.57788C18.4295 2.0354 16.7449 2.59058 15.0962 3.24067L19.2009 7.49225C20.3631 7.01401 21.5621 6.63063 22.7862 6.34588Z" fill="#EB5C01"/>
<path fill-rule="evenodd" clip-rule="evenodd" d="M15.2565 9.60609L8.96814 6.2627C7.76029 6.99391 6.6074 7.81227 5.51864 8.71125C5.21665 8.96278 4.92505 9.22025 4.64532 9.48218L12.6937 11.6428C13.0143 11.3155 13.3553 11.0087 13.7146 10.7243C14.2335 10.3181 14.7475 9.94542 15.2565 9.60609Z" fill="#E8350D"/>
<path fill-rule="evenodd" clip-rule="evenodd" d="M10.6005 14.3517H1.02889C-0.529283 17.6105 -0.119706 20.3151 0.948754 22.3711C1.85769 24.12 2.89573 25.2107 5.18921 26.5381C8.32558 28.353 10.0789 28.7581 12.8881 29.2834C25.3972 31.62 37.7446 27.9108 44.8951 22.9165C49.9265 19.4024 54.0676 13.8472 51.9959 8.75638L51.4024 7.29541L42.4303 9.6898C41.4234 9.9584 40.467 10.2359 39.8756 10.4318C39.4912 10.5609 38.9362 10.877 38.7626 11.0573C38.2915 11.5359 38.1557 11.7251 38.0993 12.5353C38.0355 13.4487 38.238 14.3547 38.9659 14.8755C39.6938 15.3964 39.9142 15.0388 41.1644 14.5587C41.4731 14.4407 41.8203 14.351 41.9517 14.4422C41.9743 14.4552 41.9927 14.4744 42.0046 14.4976C42.0166 14.5207 42.0217 14.5469 42.0192 14.5728C42.0095 14.7056 41.7224 15.3059 41.4308 15.7874C41.0034 16.499 40.1049 17.4888 39.3206 18.2471C37.4478 20.0568 34.4561 21.5571 31.7842 22.4431C30.7314 22.7925 27.5423 23.3624 24.8266 23.7126C22.6704 23.9916 19.8494 24.0643 16.6136 23.0693C15.4561 22.7139 14.2852 22.2746 13.2687 21.6796C12.7723 21.3894 11.8048 20.646 11.1355 19.8728C10.4506 19.0804 9.93273 17.1201 10.1405 15.9655C10.2607 15.294 10.4499 14.6596 10.5909 14.374L10.6005 14.3517Z" fill="#E60012"/>
<path fill-rule="evenodd" clip-rule="evenodd" d="M18.683 7.7102L14.5679 3.44971C12.8194 4.16107 11.1234 4.99542 9.49274 5.94649L15.7581 9.27801C16.693 8.68394 17.6707 8.1599 18.683 7.7102Z" fill="#EB5C01"/>
<path fill-rule="evenodd" clip-rule="evenodd" d="M12.2833 12.0716L4.20756 9.90723C3.91077 10.208 3.62955 10.5137 3.36392 10.8243C2.56961 11.7506 1.87453 12.7575 1.29007 13.8286H10.9047C11.3162 13.2068 11.7773 12.6192 12.2833 12.0716Z" fill="#E8350D"/>
<path fill-rule="evenodd" clip-rule="evenodd" d="M27.0556 21.4801C28.3733 21.4803 29.6614 21.0897 30.7571 20.3577C31.8528 19.6257 32.7069 18.5852 33.2112 17.3679C33.7156 16.1505 33.8477 14.8109 33.5907 13.5185C33.3337 12.2261 32.6992 11.0389 31.7675 10.1071C30.8358 9.17531 29.6487 8.54072 28.3563 8.28359C27.0639 8.02646 25.7243 8.15836 24.5069 8.66259C23.2895 9.16682 22.2489 10.0207 21.5168 11.1164C20.7848 12.212 20.394 13.5001 20.394 14.8178C20.394 16.5846 21.0958 18.2791 22.3451 19.5285C23.5943 20.7779 25.2887 21.4799 27.0556 21.4801Z" fill="#009944"/>
<path fill-rule="evenodd" clip-rule="evenodd" d="M29.8922 16.8367L30.5778 14.7562L32.6969 14.2012L30.6163 13.5156L30.0621 11.3958L29.3757 13.477L27.2566 14.0313L29.3372 14.7176L29.8922 16.8367Z" fill="#FFF100"/>
<path fill-rule="evenodd" clip-rule="evenodd" d="M29.8959 16.7186L30.5459 14.7457L30.5518 14.7286L30.5696 14.7234L32.5796 14.1974L30.6037 13.5466L30.5859 13.5414L30.5815 13.5236L30.0554 11.5136L29.4047 13.4865L29.3995 13.5043L29.3817 13.5088L27.3716 14.0349L29.3476 14.6848L29.3654 14.6908L29.3698 14.7086L29.8959 16.7186ZM29.9241 16.847H29.8595L29.3097 14.7449L27.2462 14.0653V14.0007L29.3483 13.4509L30.028 11.3875H30.0925L30.6423 13.4888L32.7058 14.1692V14.233L30.6037 14.7835L29.9241 16.847Z" fill="#231815"/>
<path d="M79.7974 14.4525H95.0527V15.0018C95.0527 22.3137 90.3666 27.0002 83.0601 27.0002H76.5346C68.9989 27.0002 64.542 22.5461 64.542 15.0018C64.542 7.46045 68.9959 3.00024 76.5346 3.00024H83.0601C88.4247 3.00024 92.3719 5.54118 94.0938 9.766H86.4646C85.4243 7.43329 83.226 6.30466 79.7974 6.30466C74.8158 6.30466 72.4275 8.68263 72.4275 13.68V16.3235C72.4275 21.3088 74.8158 23.6989 79.7974 23.6989C84.2362 23.6989 86.6093 21.7977 87.0767 17.8595H79.7974V14.4525Z" fill="#4EA0DE"/>
<path d="M309.526 12.9738L309.123 12.9097C305.058 12.2646 301.385 11.6815 301.385 9.09907C301.385 6.4314 306.143 6.3288 309.05 6.44951C311.957 6.57022 317.846 8.03381 317.846 8.03381V4.05644C317.846 4.05644 310.362 3.22053 305.253 3.22053C300.145 3.22053 293.93 4.30692 293.93 9.70262C293.93 14.826 300.744 16.2682 303.53 16.8579C303.678 16.8893 303.815 16.9182 303.939 16.9452C304.571 17.0804 305.328 17.1853 306.125 17.2959C308.992 17.6936 312.382 18.1637 312.382 20.3763C312.382 23.5233 308.151 23.5216 306.159 23.5208L306.068 23.5208C304.117 23.5208 298.049 22.706 293.758 20.6117V25.4733C293.758 25.4733 301.032 27.0002 306.885 27.0002C313.908 27.0002 320.542 24.9784 320.542 20.0414C320.539 14.9957 314.879 13.8309 309.526 12.9738Z" fill="#4EA0DE"/>
<path d="M282.333 23.2251C282.333 23.2251 279.978 23.3971 275.952 23.3971C271.926 23.3971 270.081 22.1749 270.081 18.5687V3.48005H259.994L262.253 6.35595V17.2198C262.253 22.9535 264.213 26.6019 275.219 26.6019C285.523 26.6019 290.143 25.0659 290.143 25.0659V3.48911H282.333V23.2251Z" fill="#4EA0DE"/>
<path d="M96.7686 3.48911L99.0242 6.36501V26.3514H106.475V3.48911H96.7686Z" fill="#4EA0DE"/>
<path fill-rule="evenodd" clip-rule="evenodd" d="M120.205 3.49214L109.379 26.3484H115.824L118.999 19.6611H128.748L131.917 26.3545H138.361L127.536 3.49516L120.205 3.49214ZM120.455 16.5649L123.866 9.3586L127.279 16.5649H120.455Z" fill="#4EA0DE"/>
<path d="M149.012 3.48911L160.356 17.084V3.48911H168.088V26.3514H160.356L149.012 12.7566V26.3514H141.277V3.48911H149.012Z" fill="#4EA0DE"/>
<path d="M171.155 7.1798H180.696V26.3514H188.252V7.1798H197.79V3.48911H171.155V7.1798Z" fill="#4EA0DE"/>
<path d="M240.472 3.48911V22.6607H259.3V26.3514H232.665V6.36501L230.406 3.48911H240.472Z" fill="#4EA0DE"/>
<path fill-rule="evenodd" clip-rule="evenodd" d="M200.251 3.48911H219.032C226.597 3.48911 228.835 6.82672 228.835 10.4148C228.835 14.021 226.597 17.3556 219.032 17.3556H210.317V26.3544H202.51V6.36501L200.251 3.48911ZM215.787 14.2896C220.802 14.2896 221.61 11.8663 221.61 10.4299L221.619 10.4239C221.619 8.97534 220.811 6.56116 215.796 6.56116H210.317V14.2896H215.787Z" fill="#4EA0DE"/>
</svg>
